<svg width="80" height="70" viewBox="0 0 80 70" fill="none" xmlns="http://www.w3.org/2000/svg">
  <rect width="80" height="70" fill="white"/>
  <g>
    <path
        d="M24.0187 21.1288C23.2184 21.3565 22.6364 21.8795 22.2564 22.7231L22.0301 23.2292L22.0058 32.6349C21.9897 39.2821 22.0058 42.2008 22.0705 42.5888C22.2403 43.6264 22.8627 44.4362 23.7358 44.7821C24.1723 44.9508 24.3178 44.9508 34.2367 44.9508C39.7742 44.9508 44.3011 44.9592 44.3011 44.9761C44.3011 44.993 43.9374 45.6847 43.4928 46.5114C43.0482 47.3464 42.6844 48.0973 42.6844 48.1816C42.6844 48.4685 42.9188 48.8143 43.1774 48.907C43.3634 48.9746 45.5056 48.9999 50.3803 48.9999C58.0761 48.9999 57.6961 49.0251 57.9306 48.4515C57.9872 48.2913 58.0195 48.0973 57.9872 48.0128C57.9629 47.9285 56.9362 45.9968 55.7075 43.7276L53.4764 39.5942L53.436 31.3695L53.3955 23.1449L53.1691 22.6809C52.7811 21.8711 52.2718 21.4071 51.4877 21.1541C51.0108 21.0022 50.5581 20.9938 37.729 21.0022C26.3711 21.0022 24.3906 21.0191 24.0187 21.1288ZM51.3826 22.8243C51.9242 23.2292 51.9 22.9002 51.8838 30.0789L51.8595 36.5574L51.4068 35.7139C51.0512 35.039 50.8976 34.8366 50.6713 34.7184C50.4044 34.5835 50.356 34.5751 50.1054 34.6931C49.9598 34.7691 49.782 34.8703 49.7093 34.9209C49.6041 35.0053 49.3132 34.7944 48.0036 33.7146C47.1386 32.9892 46.3545 32.3565 46.2575 32.3058C45.7967 32.0528 45.7401 32.0866 42.9188 34.5835C41.4475 35.8826 40.1945 36.9708 40.146 36.9876C40.0894 37.0129 38.6101 35.3764 36.7104 33.1916C34.8754 31.0743 33.2828 29.2691 33.1697 29.1763C32.9191 28.9654 32.6038 28.957 32.337 29.151C32.2238 29.2353 30.2595 31.0237 27.9717 33.141C25.684 35.2499 23.7439 37.0298 23.663 37.0973C23.5256 37.207 23.5256 36.9032 23.5418 30.3488C23.566 22.5881 23.5256 23.0774 24.1966 22.7568C24.528 22.605 24.9079 22.5966 37.834 22.6219L51.132 22.6387L51.3826 22.8243ZM36.2173 34.9969C37.9553 37.0129 39.4832 38.7337 39.6045 38.8097C39.8227 38.97 40.0732 39.0037 40.3077 38.9025C40.3805 38.8772 41.6658 37.7721 43.1614 36.4561C44.6487 35.1402 45.9179 34.0857 45.9745 34.1027C46.1685 34.187 48.8281 36.4646 48.8281 36.549C48.82 36.5996 48.0117 38.1433 47.0173 39.9738L45.2146 43.3058L34.7379 43.3311L24.2612 43.348L23.9783 43.0865C23.5741 42.7237 23.5175 42.4032 23.5418 40.7583L23.566 39.3495L27.1633 36.0259C29.1439 34.1954 31.1972 32.3058 31.7226 31.8166L32.6846 30.9309L32.8625 31.1333C32.9595 31.2346 34.4712 32.9808 36.2173 34.9969ZM53.1125 42.1417C54.6 44.9086 55.8288 47.22 55.845 47.2874C55.8691 47.3803 54.883 47.3971 50.3237 47.3971H44.77L44.9641 47.0344C48.2461 40.9101 50.3156 37.1057 50.356 37.1057C50.3803 37.1057 51.6252 39.3748 53.1125 42.1417Z"
        fill="#404040"/>
    <path
        d="M40.0571 25.9117C39.0709 26.2576 38.4484 26.9493 38.1979 27.9869C37.7774 29.6909 39.0628 31.3695 40.7847 31.3695C43.1614 31.3695 44.3335 28.4255 42.6682 26.6541C42.0134 25.9539 40.8736 25.6334 40.0571 25.9117ZM41.4394 27.6157C41.5526 27.6916 41.7224 27.9278 41.8033 28.1303C42.0134 28.6111 41.9406 29.016 41.593 29.4125C41.3666 29.6824 41.2778 29.7162 40.8494 29.7499C40.3967 29.7836 40.3481 29.7668 40.0732 29.5221C39.5801 29.0666 39.4993 28.434 39.8793 27.8772C40.1945 27.4133 40.9544 27.2783 41.4394 27.6157Z"
        fill="#404040"/>
    <path
        d="M49.8386 38.8266C49.7335 38.9362 49.6203 39.1555 49.596 39.3074C49.5718 39.4677 49.5556 40.6065 49.5718 41.838C49.596 43.9469 49.6041 44.0988 49.7578 44.276C50.0002 44.5543 50.259 44.6302 50.5742 44.529C51.0916 44.3519 51.0916 44.335 51.0916 41.5681V39.0712L50.8814 38.8434C50.5904 38.5482 50.1134 38.5398 49.8386 38.8266Z"
        fill="#404040"/>
    <path
        d="M50.0407 45.0604C49.7255 45.1786 49.3941 45.6257 49.3941 45.9377C49.3941 46.2668 49.6204 46.6716 49.8872 46.8403C50.2105 47.0344 50.7117 46.9753 50.9785 46.7139C51.7383 45.9715 51.027 44.7145 50.0407 45.0604Z"
        fill="#404040"/>
  </g>
</svg>
